# xmcd
#
# Track frame offsets: 
#        150
#        21699
#        43725
#        58383
#        76294
#        94562
#        115525
#        144154
#        164670
#        181121
#        197413
#        218085
#        241309
#        262270
#        289693
#        312558
#
# Disc length: 4382 seconds
#
# Revision: 2
# Processed by: cddbd v1.5.2PL0 Copyright (c) Steve Scherf et al.
# Submitted via: ExactAudioCopyFreeDBPlugin 1.0
#
DISCID=e8111c10
DTITLE=Various Artist - Songs 4 Worship Country
DYEAR=2007
DGENRE=Country
TTITLE0=Diamond Rio - Open The Eyes Of My Heart
TTITLE1=Emerson Drive - I Can Only Imagine
TTITLE2=Howard, Rebecca Lynn - God Is In The House
TTITLE3=Skaggs, Ricky - We All Bow Down
TTITLE4=Daniels, Charlie - Awesome God
TTITLE5=Davis, Linda  - Shout To The Lord
TTITLE6=LeBlanc, Lenny  - Here I Am To Worship
TTITLE7=Rascal Flatts - He Ain't The Leavin' Kind
TTITLE8=Howard, Rebecca Lynn - Lord I Am Yours
TTITLE9=Raye, Collin - Get Up In Jesus' Name
TTITLE10=White, Bryan - God Of Wonders
TTITLE11=Robinson, Rachael - You Are My King (Amazing Love)
TTITLE12=Oak Ridge Boys - Come Now Is The Time To Worship
TTITLE13=Butler, Trinecia  - How Great Is Our God
TTITLE14=Rayborn, Marty  - All For Love
TTITLE15=Wilsons, The  - Doxology
EXTD=YEAR: 2007
EXTT0=
EXTT1=
EXTT2=
EXTT3=
EXTT4=
EXTT5=
EXTT6=
EXTT7=
EXTT8=
EXTT9=
EXTT10=
EXTT11=
EXTT12=
EXTT13=
EXTT14=
EXTT15=
PLAYORDER=
